<svg xmlns="http://www.w3.org/2000/svg" viewBox="0 0 200.8778 222.7458"><path d="M215.6323,133.7188c-.6121,5.9837-1.2672,11.2907-1.583,15.336-.8311,10.6465-6.5995,52.1838-9.245,70.7525l-32.0624,6.2406" transform="translate(-17.6577 -19.0095)" fill="none" stroke="#fff" stroke-linecap="round" stroke-linejoin="round" stroke-width="0.876"/><path d="M155.32,27.9849A189.0679,189.0679,0,0,1,177.1994,37.65c4.2955,2.87,28.2955,14.7509,36.6123,48.7311,3.3245,10.3429,3.5589,23.0616,2.862,34.8514" transform="translate(-17.6577 -19.0095)" fill="none" stroke="#fff" stroke-linecap="round" stroke-linejoin="round" stroke-width="0.876"/><path d="M217.2022,121.1185l-.507.3109a21.9473,21.9473,0,0,1-3.1622.69l-21.0966,3.0075c-.3084.0122-.8052.1053-.6833-.1783l-.2367-.458a.42.42,0,0,1,.3266-.25l23.9276-3.3969a.4211.4211,0,0,1,.1451.0048Z" transform="translate(-17.6577 -19.0095)" fill="#008d36" stroke="#fff" stroke-miterlimit="10"/><line x1="152.4755" y1="115.7352" x2="141.4581" y2="167.9522" fill="none" stroke="#fff" stroke-miterlimit="10" stroke-width="1.2"/><path d="M143.447,46.26c23.4031,10.4865,37.882,37.8658,31.5187,65.5806l-1.9927,9.4444" transform="translate(-17.6577 -19.0095)" fill="none" stroke="#fff" stroke-miterlimit="10" stroke-width="1.2"/><path d="M63.4253,99.6015l2.5619-10.5251C72.816,60.2841,98.0209,41.0611,124.091,41.8179" transform="translate(-17.6577 -19.0095)" fill="none" stroke="#fff" stroke-miterlimit="10" stroke-width="1.2"/><line x1="29.6204" y1="146.9315" x2="42.4753" y2="94.1183" fill="none" stroke="#fff" stroke-miterlimit="10" stroke-width="1.2"/><line x1="129.7101" y1="205.933" x2="25.1932" y2="185.2904" fill="none" stroke="#fff" stroke-miterlimit="10" stroke-width="1.2"/><polyline points="35.246 92.041 23.308 141.159 21.973 147.062" fill="none" stroke="#fff" stroke-miterlimit="10" stroke-width="0.7434"/><path d="M120.7484,33.3461c-28.59,1.002-55.7709,21.6777-61.7666,52.6992L56.2082,97.4564" transform="translate(-17.6577 -19.0095)" fill="none" stroke="#fff" stroke-miterlimit="10" stroke-width="0.7434"/><path d="M181.7163,122.72l2.1916-10.4407a65.3815,65.3815,0,0,0-34.1168-72.6848" transform="translate(-17.6577 -19.0095)" fill="none" stroke="#fff" stroke-miterlimit="10" stroke-width="0.7434"/><line x1="149.778" y1="171.7425" x2="161.2102" y2="117.2799" fill="none" stroke="#fff" stroke-miterlimit="10" stroke-width="0.7434"/><polyline points="33.092 91.741 20.939 142.064 19.912 146.612" fill="none" stroke="#fff" stroke-miterlimit="10" stroke-width="0.7433"/><path d="M118.677,30.896C90.49,32.4626,64.7176,52.5337,56.9726,84.9853L53.9761,97.393" transform="translate(-17.6577 -19.0095)" fill="none" stroke="#fff" stroke-miterlimit="10" stroke-width="0.7433"/><path d="M183.6913,122.9953l2.2876-10.9112a67.2347,67.2347,0,0,0-33.725-73.8788" transform="translate(-17.6577 -19.0095)" fill="none" stroke="#fff" stroke-miterlimit="10" stroke-width="0.7433"/><path d="M183.6913,122.9953" transform="translate(-17.6577 -19.0095)" fill="none" stroke="#fff" stroke-miterlimit="10" stroke-width="0.7433"/><line x1="151.7657" y1="172.0385" x2="163.1493" y2="117.7429" fill="none" stroke="#fff" stroke-miterlimit="10" stroke-width="0.7433"/><polyline points="25.964 90.292 14.627 137.034 13.274 143.232" fill="none" stroke="#fff" stroke-miterlimit="10" stroke-width="1.2549"/><path d="M119.9828,21.5748c-31.706,1.4521-60.728,24.19-69.13,57.914L46.8947,95.8056" transform="translate(-17.6577 -19.0095)" fill="none" stroke="#fff" stroke-miterlimit="10" stroke-width="1.2549"/><path d="M190.7809,124.9l3.154-15.1416c6.0742-33.5251-10.4141-66.1746-38.7929-80.6038" transform="translate(-17.6577 -19.0095)" fill="none" stroke="#fff" stroke-miterlimit="10" stroke-width="1.2549"/><line x1="159.4063" y1="171.7425" x2="170.2928" y2="119.4785" fill="none" stroke="#fff" stroke-miterlimit="10" stroke-width="1.2549"/><path d="M28.3642,196.6692" transform="translate(-17.6577 -19.0095)" fill="none" stroke="#fff" stroke-miterlimit="10" stroke-width="0.9823"/><path d="M75.2255,97.2864l86.22,17.4452a1.9287,1.9287,0,0,0,2.2053-1.5773c5.588-26.5066-10.3061-52.5672-34.9983-57.39-24.5391-4.7929-49.2955,13.0441-54.6818,39.4434A1.7126,1.7126,0,0,0,75.2255,97.2864Z" transform="translate(-17.6577 -19.0095)" fill="none" stroke="#fff" stroke-linejoin="round" stroke-width="1.1321"/><path d="M111.12,80.5958l-3.44-3.8923,4.6553-3.0773a2.8877,2.8877,0,0,0-3.1848-4.8179l-5.3324,3.5249-3.977-4.5006a2.8344,2.8344,0,0,0-4.0006-.2471l-.08.0709a2.8342,2.8342,0,0,0-.2471,4l3.44,3.8924-4.6553,3.0773a2.8877,2.8877,0,0,0,3.1848,4.8179L102.815,79.92l3.977,4.5006a2.8343,2.8343,0,0,0,4.0006.247l.08-.0708A2.8342,2.8342,0,0,0,111.12,80.5958Z" transform="translate(-17.6577 -19.0095)" fill="none" stroke="#fff" stroke-linejoin="round"/><path d="M153.4043,99.4672l-2.0584-3.9047,4.4619-1.6062a2.4539,2.4539,0,0,0-1.6623-4.6177l-5.1109,1.84-2.38-4.5148a2.4085,2.4085,0,0,0-3.2538-1.0074l-.08.0424a2.4084,2.4084,0,0,0-1.0074,3.2537l2.0585,3.9047L139.91,94.463a2.4539,2.4539,0,1,0,1.6622,4.6178l5.1109-1.84,2.38,4.5148a2.4085,2.4085,0,0,0,3.2538,1.0074l.08-.0424A2.4084,2.4084,0,0,0,153.4043,99.4672Z" transform="translate(-17.6577 -19.0095)" fill="none" stroke="#fff" stroke-linejoin="round" stroke-width="1.1007"/><path d="M148.49,229.8155l-.959,5.3077a1.4876,1.4876,0,0,0,.5755,1.4672,23.2325,23.2325,0,0,0,19.8727,3.7054,1.4863,1.4863,0,0,0,1.0657-1.161l1.0339-5.3659" transform="translate(-17.6577 -19.0095)" fill="none" stroke="#fff" stroke-linejoin="round" stroke-width="1.2928"/><path d="M159.2771,233.9459a29.5559,29.5559,0,0,0,11.2218-.2653,1.3757,1.3757,0,0,0,1.0593-1.1051l6.6363-36.5956a1.6857,1.6857,0,0,0-.1464-1.0227,1.7156,1.7156,0,0,0-.604-.6761l.3881-3.0435-1.036-.6548a20.6642,20.6642,0,0,1-17.5377-3.6531l-1.5428.3456-.8984,2.7355a4.248,4.248,0,0,0-1.0268.4191,2.9452,2.9452,0,0,0-1.0251.9537l-7.94,36.2344a1.42,1.42,0,0,0,.5745,1.4783A29.6263,29.6263,0,0,0,159.2771,233.9459Z" transform="translate(-17.6577 -19.0095)" fill="none" stroke="#fff" stroke-linejoin="round" stroke-width="1.2"/><path d="M20.3657,203.7058l-1.4675,6.2491a1.5,1.5,0,0,0,.5018,1.5,20.0382,20.0382,0,0,0,8.4117,3.6588,23.5971,23.5971,0,0,0,9.7979.203,1.4858,1.4858,0,0,0,1.11-1.2011l1.1428-6.6113" transform="translate(-17.6577 -19.0095)" fill="none" stroke="#fff" stroke-linejoin="round" stroke-width="1.2244"/><path d="M29.6842,207.1538a31.6459,31.6459,0,0,0,11.6572.1264,1.4273,1.4273,0,0,0,1.1511-1.14l6.8045-34.95a1.6889,1.6889,0,0,0-.7319-1.7012l.3906-3.0423-1.0156-.658a20.0189,20.0189,0,0,1-17.2159-3.7084l-1.5164.3406-.8911,2.7327a4.1348,4.1348,0,0,0-1.01.4158,2.9159,2.9159,0,0,0-1.01.9505L18.2952,201.3a1.4386,1.4386,0,0,0,.6256,1.5426A31.6451,31.6451,0,0,0,29.6842,207.1538Z" transform="translate(-17.6577 -19.0095)" fill="none" stroke="#fff" stroke-linejoin="round" stroke-width="1.2"/><line x1="21.2481" y1="193.5372" x2="129.7101" y2="214.3991" fill="none" stroke="#fff" stroke-miterlimit="10" stroke-width="1.2"/><path d="M169.63,236.0957l31.6954-7.1814a1.6952,1.6952,0,0,0,1.3058-1.4292l.9935-7.4483" transform="translate(-17.6577 -19.0095)" fill="none" stroke="#fff" stroke-linecap="round" stroke-linejoin="round" stroke-width="0.876"/><line x1="167.6015" y1="189.3797" x2="178.4373" y2="187.3003" fill="none" stroke="#fff" stroke-linecap="round" stroke-linejoin="round" stroke-width="0.75"/><line x1="167.6648" y1="197.8498" x2="178.5006" y2="195.7703" fill="none" stroke="#fff" stroke-linecap="round" stroke-linejoin="round" stroke-width="0.75"/><line x1="165.1477" y1="191.9144" x2="181.5255" y2="188.7714" fill="none" stroke="#fff" stroke-linecap="round" stroke-linejoin="round" stroke-width="0.75"/><line x1="165.1817" y1="196.2047" x2="181.5595" y2="193.0617" fill="none" stroke="#fff" stroke-linecap="round" stroke-linejoin="round" stroke-width="0.75"/><line x1="164.0461" y1="194.1334" x2="182.6588" y2="190.5616" fill="none" stroke="#fff" stroke-linecap="round" stroke-linejoin="round" stroke-width="0.75"/><path d="M172.814,225.6506" transform="translate(-17.6577 -19.0095)" fill="#fff" stroke="#fff" stroke-linejoin="round"/><path d="M45.6408,95.71a.4952.4952,0,0,1,.8-.265,7.8953,7.8953,0,0,0,3.8677,1.8133,11.8716,11.8716,0,0,0,4.6033-.0137.5345.5345,0,0,1,.2334.0047l.9066.2152a.5339.5339,0,0,1,.2406.1255,8.5491,8.5491,0,0,0,7.66,2,.4922.4922,0,0,1,.5873.6016c-.6442,2.6221-2.6422,10.7548-3.0411,12.3783a.4993.4993,0,0,1-.3682.3649,8.7887,8.7887,0,0,1-8.1083-1.9887.5353.5353,0,0,0-.2422-.1257l-.9049-.2119a.5358.5358,0,0,0-.2337-.0039,11.9375,11.9375,0,0,1-4.6127.0331,8.5392,8.5392,0,0,1-4.2377-1.9619.4931.4931,0,0,1-.1732-.5028Z" transform="translate(-17.6577 -19.0095)" fill="none" stroke="#fff" stroke-linejoin="round"/><line x1="33.9551" y1="91.5935" x2="37.2249" y2="78.2345" fill="none" stroke="#fff" stroke-linejoin="round" stroke-width="0.5"/><line x1="35.2128" y1="91.8174" x2="38.4843" y2="78.4618" fill="none" stroke="#fff" stroke-linejoin="round" stroke-width="0.5"/><path d="M57.1931,101.2856a.1681.1681,0,0,1,.2518-.1115,6.7775,6.7775,0,0,0,1.9165.7942,6.684,6.684,0,0,0,2.0654.1719.1735.1735,0,0,1,.1772.2182l-.4272,1.8427a.17.17,0,0,1-.15.1376,6.84,6.84,0,0,1-2.1479-.172,6.9361,6.9361,0,0,1-2.0458-.8643.176.176,0,0,1-.0728-.1936Z" transform="translate(-17.6577 -19.0095)" fill="none" stroke="#fff" stroke-linejoin="round" stroke-width="0.4151"/><path d="M55.7528,107.1784a.1681.1681,0,0,1,.2519-.1114,6.7826,6.7826,0,0,0,1.9164.7942,6.6906,6.6906,0,0,0,2.0655.1719.1735.1735,0,0,1,.1772.2182l-.4273,1.8427a.17.17,0,0,1-.15.1375,6.8362,6.8362,0,0,1-2.1478-.172,6.9366,6.9366,0,0,1-2.0458-.8642.1761.1761,0,0,1-.0729-.1937Z" transform="translate(-17.6577 -19.0095)" fill="none" stroke="#fff" stroke-linejoin="round" stroke-width="0.4151"/><path d="M47.2755,98.8761a.1867.1867,0,0,1,.2768-.12,7.6492,7.6492,0,0,0,4.3994,1.0015.1868.1868,0,0,1,.1973.2306l-.4556,1.959a.1844.1844,0,0,1-.1639.147A7.8192,7.8192,0,0,1,46.896,101.02a.1838.1838,0,0,1-.082-.2052Z" transform="translate(-17.6577 -19.0095)" fill="none" stroke="#fff" stroke-linejoin="round" stroke-width="0.4491"/><path d="M45.9241,104.8132a.1825.1825,0,0,1,.2706-.1172,7.48,7.48,0,0,0,4.3013.9792.1826.1826,0,0,1,.1929.2254l-.4455,1.9154a.18.18,0,0,1-.16.1436,7.6447,7.6447,0,0,1-4.53-1.0507.18.18,0,0,1-.08-.2006Z" transform="translate(-17.6577 -19.0095)" fill="none" stroke="#fff" stroke-linejoin="round" stroke-width="0.4391"/><path d="M120.2259,20.8283,118.8714,31.08a1.4776,1.4776,0,0,0,.6827,1.4606A9.6487,9.6487,0,0,1,122.9472,36a9.7478,9.7478,0,0,1,1.1744,5.8742,1.4626,1.4626,0,0,0,1.4178,1.6215,44.61,44.61,0,0,1,16.0029,3.5009,1.4719,1.4719,0,0,0,1.9947-.972,9.32,9.32,0,0,1,3.3271-4.9811,9.163,9.163,0,0,1,4.19-1.7213,1.4584,1.4584,0,0,0,1.1744-1.0336l3.1817-10.6051a1.4631,1.4631,0,0,0-.81-1.7667,77.27,77.27,0,0,0-32.972-6.3649A1.4643,1.4643,0,0,0,120.2259,20.8283Z" transform="translate(-17.6577 -19.0095)" fill="none" stroke="#fff" stroke-miterlimit="10" stroke-width="1.0209"/><path d="M123.5252,22.8946l-.9016,8.041a8.6529,8.6529,0,0,1,4.1454,3.4651,8.7418,8.7418,0,0,1,1.1111,6.0845,28.5935,28.5935,0,0,1,13.53,2.9755,8.0087,8.0087,0,0,1,3.1212-4.996,7.9,7.9,0,0,1,4.8321-1.4541h0l2.3936-8.5233a66.2157,66.2157,0,0,0-28.2321-5.5927Z" transform="translate(-17.6577 -19.0095)" fill="none" stroke="#fff" stroke-miterlimit="10" stroke-width="0.7124"/><path d="M127.7831,107.2481,130.99,91.49a8.5457,8.5457,0,0,0-16.719-3.5487l-3.3566,15.8747" transform="translate(-17.6577 -19.0095)" fill="none" stroke="#fff" stroke-linecap="round" stroke-linejoin="round" stroke-width="1.1007"/><path d="M192.3642,124.9917l24.331-3.5623a.9146.9146,0,0,1,1.043.991l-.9693,10.246a.9144.9144,0,0,1-.7529.8147l-27.1132,4.5228L191.6036,125.7A.9145.9145,0,0,1,192.3642,124.9917Z" transform="translate(-17.6577 -19.0095)" fill="none" stroke="#fff" stroke-linecap="round" stroke-linejoin="round" stroke-width="0.75"/><path d="M192.6733,133.8983c.34-2.071.7021-4.0167,1.0961-5.77a.7181.7181,0,0,1,.5982-.5508l19.5312-3.009a.7207.7207,0,0,1,.8362.6982,37.0349,37.0349,0,0,1-.47,5.52.7269.7269,0,0,1-.5975.6038l-20.16,3.3446A.7285.7285,0,0,1,192.6733,133.8983Z" transform="translate(-17.6577 -19.0095)" fill="none" stroke="#fff" stroke-miterlimit="10" stroke-width="0.5"/><path d="M171.9472,121.264a.5.5,0,0,1,.7725-.3107,11.8134,11.8134,0,0,0,9.3049,1.699.5333.5333,0,0,1,.2335-.0028l.913.1859a.5339.5339,0,0,1,.2445.1177,8.5493,8.5493,0,0,0,7.7208,1.7519.4947.4947,0,0,1,.6053.5876l-2.6393,12.4622a.503.503,0,0,1-.3567.379,8.789,8.789,0,0,1-8.1682-1.7266.5347.5347,0,0,0-.2461-.1178l-.9113-.1826a.5342.5342,0,0,0-.2337.0036,11.89,11.89,0,0,1-9.6219-1.8515.4932.4932,0,0,1-.195-.5057Z" transform="translate(-17.6577 -19.0095)" fill="none" stroke="#fff" stroke-linejoin="round"/><line x1="161.6052" y1="117.0973" x2="164.4432" y2="103.64" fill="none" stroke="#fff" stroke-linejoin="round" stroke-width="0.5"/><line x1="162.8919" y1="117.2799" x2="165.7316" y2="103.8259" fill="none" stroke="#fff" stroke-linejoin="round" stroke-width="0.5"/><path d="M184.318,126.5366a.1777.1777,0,0,1,.2624-.1264,7.1683,7.1683,0,0,0,2.0526.7742,7.073,7.073,0,0,0,2.189.1113.1835.1835,0,0,1,.1947.2246l-.3889,1.9622a.18.18,0,0,1-.1535.1505,7.23,7.23,0,0,1-2.276-.1086,7.3358,7.3358,0,0,1-2.1918-.8438.1863.1863,0,0,1-.0836-.2023Z" transform="translate(-17.6577 -19.0095)" fill="none" stroke="#fff" stroke-linejoin="round" stroke-width="0.4389"/><path d="M183.17,132.5433a.1694.1694,0,0,1,.25-.12,6.8285,6.8285,0,0,0,1.9557.7376,6.7372,6.7372,0,0,0,2.0858.1061.1748.1748,0,0,1,.1855.214l-.3705,1.87a.1711.1711,0,0,1-.1463.1433,6.8889,6.8889,0,0,1-2.1687-.1034,6.9917,6.9917,0,0,1-2.0883-.804.1773.1773,0,0,1-.08-.1927Z" transform="translate(-17.6577 -19.0095)" fill="none" stroke="#fff" stroke-linejoin="round" stroke-width="0.4182"/><path d="M174.0077,124.2752a.19.19,0,0,1,.2781-.1312,7.7987,7.7987,0,0,0,4.5151.876.19.19,0,0,1,.2085.2284l-.4,2.0109a.1877.1877,0,0,1-.1622.155,7.9719,7.9719,0,0,1-4.756-.9427.1876.1876,0,0,1-.09-.2064Z" transform="translate(-17.6577 -19.0095)" fill="none" stroke="#fff" stroke-linejoin="round" stroke-width="0.4578"/><path d="M172.8345,130.2438a.1873.1873,0,0,1,.2737-.1291,7.6732,7.6732,0,0,0,4.4431.8619.1874.1874,0,0,1,.2052.2248l-.3934,1.9789a.185.185,0,0,1-.16.1526,7.844,7.844,0,0,1-4.68-.9278.1846.1846,0,0,1-.0889-.203Z" transform="translate(-17.6577 -19.0095)" fill="none" stroke="#fff" stroke-linejoin="round" stroke-width="0.4505"/><line x1="60.3032" y1="133.7497" x2="63.7356" y2="116.5272" fill="none" stroke="#fff" stroke-miterlimit="10" stroke-width="1.1362"/><path d="M77.9608,152.7593" transform="translate(-17.6577 -19.0095)" fill="none" stroke="#fff" stroke-miterlimit="10" stroke-width="1.1362"/><path d="M96.094,195c-13.9017-4.8823-22.5184-20.0836-19.4555-35.6053l.3531-1.7721" transform="translate(-17.6577 -19.0095)" fill="none" stroke="#fff" stroke-miterlimit="10" stroke-width="1.1362"/><path d="M135.6963,170.4334l-.1273.6386c-3.3022,16.5782-18.7882,27.7248-34.5851,25.17" transform="translate(-17.6577 -19.0095)" fill="none" stroke="#fff" stroke-miterlimit="10" stroke-width="1.1362"/><line x1="122.6533" y1="128.2694" x2="118.9778" y2="146.7114" fill="none" stroke="#fff" stroke-miterlimit="10" stroke-width="1.1362"/><path d="M103.1627,187.3138c11.3031,1.4632,22.2477-6.3694,25.2067-18.0889" transform="translate(-17.6577 -19.0095)" fill="none" stroke="#fff" stroke-miterlimit="10" stroke-width="1.1362"/><path d="M84.1356,159.4207c-2.1255,11.39,3.8784,22.4782,13.7271,26.4955" transform="translate(-17.6577 -19.0095)" fill="none" stroke="#fff" stroke-miterlimit="10" stroke-width="1.1362"/><line x1="70.9499" y1="117.965" x2="67.4714" y2="135.419" fill="none" stroke="#fff" stroke-miterlimit="10" stroke-width="1.1362"/><line x1="52.3531" y1="132.163" x2="56.3275" y2="112.2212" fill="none" stroke="#fff" stroke-miterlimit="10" stroke-width="1.1362"/><path d="M93.6263,204.0125c-17.898-6-29.1-25.1257-25.2576-44.6l.67-3.361" transform="translate(-17.6577 -19.0095)" fill="none" stroke="#fff" stroke-miterlimit="10" stroke-width="1.1362"/><path d="M143.5756,172.3751l-.3722,1.8677c-4.1167,20.6672-23.754,34.4928-43.8348,31.1933" transform="translate(-17.6577 -19.0095)" fill="none" stroke="#fff" stroke-miterlimit="10" stroke-width="1.1362"/><line x1="131.118" y1="127.2737" x2="126.9135" y2="148.3703" fill="none" stroke="#fff" stroke-miterlimit="10" stroke-width="1.1362"/><line x1="111.7407" y1="145.2175" x2="115.4063" y2="126.8251" fill="none" stroke="#fff" stroke-miterlimit="10" stroke-width="1.1362"/><polyline points="138.41 118.762 136.5 128.346 126.025 126.259" fill="none" stroke="#fff" stroke-linecap="round" stroke-linejoin="round" stroke-width="0.5667"/><line x1="130.254" y1="127.1015" x2="132.1563" y2="117.5569" fill="none" stroke="#fff" stroke-miterlimit="10" stroke-width="0.2987"/><line x1="132.3496" y1="127.5191" x2="134.2518" y2="117.9746" fill="none" stroke="#fff" stroke-miterlimit="10" stroke-width="0.2987"/><line x1="134.4187" y1="128.0693" x2="136.3474" y2="118.3922" fill="none" stroke="#fff" stroke-miterlimit="10" stroke-width="0.2987"/><line x1="126.4103" y1="126.3354" x2="127.5362" y2="120.6859" fill="none" stroke="#fff" stroke-miterlimit="10" stroke-width="0.2987"/><line x1="128.1585" y1="126.6839" x2="129.2928" y2="120.9923" fill="none" stroke="#fff" stroke-miterlimit="10" stroke-width="0.2987"/><polyline points="61.91 113.481 51.522 111.41 53.43 101.842" fill="none" stroke="#fff" stroke-linecap="round" stroke-linejoin="round" stroke-width="0.5849"/><line x1="57.7273" y1="112.6471" x2="59.6295" y2="103.1025" fill="none" stroke="#fff" stroke-miterlimit="10" stroke-width="0.2987"/><line x1="59.8641" y1="113.0729" x2="61.082" y2="106.9619" fill="none" stroke="#fff" stroke-miterlimit="10" stroke-width="0.2987"/><line x1="61.6123" y1="113.4213" x2="62.8186" y2="107.3689" fill="none" stroke="#fff" stroke-miterlimit="10" stroke-width="0.2987"/><line x1="53.4538" y1="111.7954" x2="55.356" y2="102.2508" fill="none" stroke="#fff" stroke-miterlimit="10" stroke-width="0.2987"/><line x1="55.5905" y1="112.2212" x2="57.4927" y2="102.6767" fill="none" stroke="#fff" stroke-miterlimit="10" stroke-width="0.2987"/><path d="M148.56,136.3164l7.1136,1.4178a1.92,1.92,0,0,0,2.2588-1.5081l1.7918-8.9907a1.92,1.92,0,0,0-1.5081-2.2588l-7.1136-1.4178" transform="translate(-17.6577 -19.0095)" fill="none" stroke="#fff" stroke-linecap="round" stroke-linejoin="round" stroke-width="1.0333"/><path d="M81.0182,109.5913l-7.0945-1.4139a1.92,1.92,0,0,0-2.2589,1.508l-1.7918,8.9907a1.92,1.92,0,0,0,1.5081,2.2588l7.1136,1.4178" transform="translate(-17.6577 -19.0095)" fill="none" stroke="#fff" stroke-linecap="round" stroke-linejoin="round" stroke-width="1.0333"/><path d="M79.2428,133.1487h65.3759a0,0,0,0,1,0,0v7.5382a.8534.8534,0,0,1-.8534.8534H80.0962a.8534.8534,0,0,1-.8534-.8534v-7.5382A0,0,0,0,1,79.2428,133.1487Z" transform="translate(11.3458 -38.2379) rotate(11.2713)" fill="none" stroke="#fff" stroke-linecap="round" stroke-linejoin="round" stroke-width="0.5667"/><circle cx="94.2731" cy="118.3349" r="1.7" fill="none" stroke="#fff" stroke-miterlimit="10" stroke-width="0.5667"/><circle cx="82.0469" cy="115.8983" r="1.7" fill="none" stroke="#fff" stroke-miterlimit="10" stroke-width="0.5667"/><circle cx="69.8208" cy="113.4616" r="1.7" fill="none" stroke="#fff" stroke-miterlimit="10" stroke-width="0.5667"/><circle cx="106.4992" cy="120.7716" r="1.7" fill="none" stroke="#fff" stroke-miterlimit="10" stroke-width="0.5667"/><circle cx="118.7254" cy="123.2082" r="1.7" fill="none" stroke="#fff" stroke-miterlimit="10" stroke-width="0.5667"/><rect x="79.077" y="112.4799" width="71.4427" height="20.9517" rx="1.1533" transform="translate(8.5887 -39.0759) rotate(11.2713)" fill="none" stroke="#fff" stroke-linecap="round" stroke-linejoin="round" stroke-width="1.1006"/><path d="M136.5871,166.6969l-.55,2.7608c-.1214.6087-.5224,1.0418-.8958.9674a19.8005,19.8005,0,0,1-7.5225-1.4993c-.3734-.0744-.5778-.6281-.4565-1.2368l.55-2.7608c.1213-.6087.5223-1.0419.8957-.9674a26.1959,26.1959,0,0,0,7.5225,1.4992C136.504,165.5344,136.7084,166.0882,136.5871,166.6969Z" transform="translate(-17.6577 -19.0095)" fill="none" stroke="#fff" stroke-linecap="round" stroke-linejoin="round" stroke-width="0.75"/><path d="M145.4221,168.6386l-.55,2.7608c-.1213.6087-.5224,1.0418-.8958.9674a19.8005,19.8005,0,0,1-7.5225-1.4993c-.3734-.0744-.5777-.6281-.4564-1.2368l.55-2.7608c.1213-.6087.5224-1.0419.8958-.9674a26.1946,26.1946,0,0,0,7.5224,1.4992C145.339,167.4761,145.5434,168.03,145.4221,168.6386Z" transform="translate(-17.6577 -19.0095)" fill="none" stroke="#fff" stroke-linecap="round" stroke-linejoin="round" stroke-width="0.75"/><path d="M77.6165,153.78l-.55,2.7608c-.1213.6087-.5224,1.0418-.8958.9674a19.8,19.8,0,0,1-7.5224-1.4992c-.3735-.0744-.5778-.6282-.4565-1.2369l.55-2.7608c.1213-.6087.5224-1.0418.8958-.9674a26.1919,26.1919,0,0,0,7.5225,1.4992C77.5335,152.6172,77.7378,153.1709,77.6165,153.78Z" transform="translate(-17.6577 -19.0095)" fill="none" stroke="#fff" stroke-linecap="round" stroke-linejoin="round" stroke-width="0.75"/><path d="M86.4516,155.7213l-.55,2.7608c-.1213.6087-.5223,1.0418-.8957.9674a19.8,19.8,0,0,1-7.5225-1.4992c-.3734-.0744-.5778-.6282-.4565-1.2369l.55-2.7608c.1213-.6087.5224-1.0418.8958-.9674a26.1925,26.1925,0,0,0,7.5225,1.4992C86.3685,154.5589,86.5729,155.1126,86.4516,155.7213Z" transform="translate(-17.6577 -19.0095)" fill="none" stroke="#fff" stroke-linecap="round" stroke-linejoin="round" stroke-width="0.75"/><path d="M100.0806,196.3869l-3.1066-.6192c-.685-.1365-1.1724-.5878-1.0886-1.008a22.2811,22.2811,0,0,1,1.687-8.4648c.0838-.42.7069-.65,1.3919-.5136l3.1066.6191c.685.1365,1.1723.5878,1.0886,1.008a29.4712,29.4712,0,0,0-1.687,8.4648C101.3887,196.2934,100.7656,196.5234,100.0806,196.3869Z" transform="translate(-17.6577 -19.0095)" fill="none" stroke="#fff" stroke-linecap="round" stroke-linejoin="round" stroke-width="0.75"/><path d="M97.8957,206.3287,94.789,205.71c-.6849-.1365-1.1723-.5878-1.0886-1.008a22.2812,22.2812,0,0,1,1.6871-8.4648c.0837-.42.7069-.65,1.3918-.5136l3.1067.6191c.6849.1365,1.1723.5878,1.0885,1.008a29.4746,29.4746,0,0,0-1.687,8.4648C99.2038,206.2352,98.5806,206.4652,97.8957,206.3287Z" transform="translate(-17.6577 -19.0095)" fill="none" stroke="#fff" stroke-linecap="round" stroke-linejoin="round" stroke-width="0.75"/></svg>